<?xml version="1.0" standalone="no"?>
<!DOCTYPE svg PUBLIC "-//W3C//DTD SVG 20010904//EN"
 "http://www.w3.org/TR/2001/REC-SVG-20010904/DTD/svg10.dtd">
<svg version="1.0" xmlns="http://www.w3.org/2000/svg"
 width="500.000000pt" height="500.000000pt" viewBox="0 0 500.000000 500.000000"
 preserveAspectRatio="xMidYMid meet">
<metadata>
Created by potrace 1.14, written by Peter Selinger 2001-2017
</metadata>
<g transform="translate(0.000000,500.000000) scale(0.100000,-0.100000)"
fill="#000000" stroke="none">
<path d="M0 2500 l0 -2500 2500 0 2500 0 0 2500 0 2500 -2500 0 -2500 0 0
-2500z m3346 1263 c54 -28 96 -90 102 -151 9 -96 4 -102 -321 -429 -166 -167
-307 -303 -313 -303 -6 0 -20 12 -29 28 -10 15 -63 85 -118 156 l-100 128 274
274 c301 301 337 329 420 321 26 -2 64 -13 85 -24z m482 -398 c102 -43 149
-159 107 -263 -11 -25 -135 -157 -387 -409 l-371 -371 -76 126 c-42 70 -92
149 -110 176 l-34 48 334 334 c205 205 349 342 374 354 48 24 112 26 163 5z
m-1803 -64 c51 -23 101 -80 114 -129 7 -26 8 -96 1 -219 l-10 -181 -109 -164
c-117 -175 -226 -366 -282 -491 -25 -56 -35 -71 -37 -55 -1 13 9 267 22 565
23 486 28 547 45 580 50 99 159 138 256 94z m659 -406 c287 -384 481 -713 557
-942 29 -86 32 -111 32 -203 -2 -297 -177 -568 -447 -690 -444 -202 -959 56
-1072 536 -26 110 -15 265 26 379 88 246 323 631 624 1019 l100 129 34 -39
c19 -21 84 -106 146 -189z m1141 -443 c79 -55 112 -172 71 -251 -9 -17 -134
-155 -279 -306 l-262 -275 -6 142 c-5 132 -8 152 -43 252 l-38 109 169 169
c120 120 181 173 209 184 56 21 129 11 179 -24z"/>
<path d="M2433 2358 c-147 -196 -257 -379 -293 -488 -86 -257 157 -531 427
-481 128 24 233 102 289 216 26 54 29 70 29 155 0 93 -1 97 -47 192 -26 54
-72 137 -104 185 -69 107 -197 285 -217 301 -12 10 -27 -4 -84 -80z m133 -115
c215 -290 273 -432 229 -564 -24 -72 -110 -159 -179 -182 -192 -65 -385 52
-411 248 -12 85 32 191 155 375 68 101 137 190 148 190 5 0 31 -30 58 -67z"/>
</g>
</svg>
