<?xml version="1.0" standalone="no"?>
<!DOCTYPE svg PUBLIC "-//W3C//DTD SVG 20010904//EN"
 "http://www.w3.org/TR/2001/REC-SVG-20010904/DTD/svg10.dtd">
<svg version="1.0" xmlns="http://www.w3.org/2000/svg"
 width="512.000000pt" height="512.000000pt" viewBox="0 0 512.000000 512.000000"
 preserveAspectRatio="xMidYMid meet">
<metadata>
Created by potrace 1.14, written by Peter Selinger 2001-2017
</metadata>
<g transform="translate(0.000000,512.000000) scale(0.100000,-0.100000)"
fill="#000000" stroke="none">
<path d="M4058 5096 c-76 -33 -125 -121 -114 -203 9 -67 48 -117 126 -163 101
-59 160 -109 230 -196 70 -87 138 -221 169 -331 56 -204 52 -511 -10 -652 -10
-23 -37 2 -597 561 -525 523 -591 586 -629 595 -92 23 -195 -25 -229 -106 -18
-43 -18 -122 0 -164 8 -18 86 -104 175 -192 89 -88 161 -163 161 -168 0 -11
-244 -257 -255 -257 -5 0 -57 47 -115 105 l-105 105 -460 -460 -460 -460 268
-267 267 -268 460 460 460 460 -90 90 -90 90 128 128 c70 70 132 127 137 127
6 0 154 -144 330 -320 l320 -320 -132 -132 -133 -133 -109 109 c-94 93 -112
108 -125 97 -9 -7 -216 -213 -462 -458 l-447 -445 269 -269 269 -269 460 460
460 460 -88 88 -87 87 133 133 132 132 185 -185 185 -185 -715 -715 -715 -715
-920 919 c-984 984 -938 941 -1035 941 -118 -1 -212 -131 -179 -250 11 -38 39
-71 185 -220 l173 -176 -455 -454 c-250 -250 -463 -468 -472 -485 -19 -36 -20
-121 -2 -156 7 -13 63 -75 124 -137 l110 -112 -135 -138 c-127 -128 -144 -151
-261 -337 -69 -110 -173 -276 -232 -368 -59 -93 -101 -165 -94 -161 7 4 180
112 383 240 l370 233 125 125 124 125 136 -133 c110 -108 144 -136 178 -146
47 -12 104 -5 142 18 14 8 229 218 477 466 l453 451 347 -346 c315 -313 353
-348 398 -362 55 -18 108 -12 160 16 17 8 424 411 906 894 915 918 899 900
899 979 0 69 -21 98 -198 276 l-176 177 42 88 c121 259 150 582 81 901 -83
385 -308 698 -614 857 -72 38 -143 45 -197 21z"/>
</g>
</svg>
