<?xml version="1.0" standalone="no"?>
<!DOCTYPE svg PUBLIC "-//W3C//DTD SVG 20010904//EN"
 "http://www.w3.org/TR/2001/REC-SVG-20010904/DTD/svg10.dtd">
<svg version="1.0" xmlns="http://www.w3.org/2000/svg"
 width="700.000000pt" height="700.000000pt" viewBox="0 0 700.000000 700.000000"
 preserveAspectRatio="xMidYMid meet">
<metadata>
Created by potrace 1.14, written by Peter Selinger 2001-2017
</metadata>
<g transform="translate(0.000000,700.000000) scale(0.100000,-0.100000)"
fill="#000000" stroke="none">
<path d="M3248 6865 c-2 -1 -32 -6 -68 -9 -286 -30 -538 -118 -770 -270 -98
-64 -120 -81 -209 -163 -29 -26 -59 -45 -81 -48 -212 -36 -334 -73 -495 -150
-97 -47 -281 -155 -295 -173 -3 -4 -30 -26 -60 -48 -83 -63 -150 -124 -269
-248 -244 -255 -415 -583 -467 -896 -2 -14 -6 -34 -9 -45 -2 -11 -7 -54 -10
-95 -11 -132 -15 -164 -23 -169 -36 -25 -177 -267 -222 -381 -59 -148 -111
-361 -126 -515 -14 -145 -6 -547 11 -575 2 -3 7 -28 11 -55 7 -56 62 -245 93
-322 68 -172 206 -389 336 -529 15 -16 26 -43 30 -72 32 -248 139 -510 303
-742 149 -212 379 -437 587 -577 130 -87 365 -191 491 -218 10 -2 48 -10 84
-19 71 -17 113 -23 205 -31 33 -3 76 -7 95 -9 22 -3 71 -28 135 -70 240 -159
542 -266 831 -293 97 -9 378 -9 459 -1 364 39 687 177 956 410 l79 69 113 20
c364 64 686 247 999 565 162 164 262 302 353 483 84 169 156 420 170 601 11
130 13 137 80 237 157 235 264 539 292 829 9 99 9 399 -1 479 -42 360 -195
700 -431 963 -41 46 -46 57 -60 139 -39 221 -105 395 -226 599 -56 93 -169
244 -238 317 -73 78 -213 213 -246 239 -16 12 -32 25 -35 29 -3 4 -50 37 -105
75 -173 117 -408 217 -605 258 -111 22 -128 25 -205 32 -127 10 -138 13 -164
32 -120 87 -217 143 -351 200 -103 44 -305 106 -385 117 -27 4 -59 9 -70 10
-95 14 -143 17 -302 20 -100 1 -183 1 -185 0z m397 -363 c501 -108 847 -538
934 -1162 10 -68 8 -501 -2 -558 -4 -18 -9 -52 -12 -75 -72 -488 -298 -824
-657 -979 -48 -21 -91 -38 -93 -38 -3 0 17 35 43 78 112 178 206 428 228 605
3 23 7 56 9 72 6 39 6 263 1 295 -3 14 -7 46 -10 71 -30 234 -181 558 -382
815 -75 97 -242 267 -339 345 -219 177 -532 338 -727 374 -21 4 -38 11 -38 15
0 24 300 123 414 136 22 3 43 7 46 9 3 2 44 7 90 10 47 4 86 8 88 10 1 1 73 1
160 -1 109 -2 184 -9 247 -22z m1323 -373 c138 -55 287 -145 432 -263 351
-284 505 -586 494 -969 -5 -143 -44 -332 -90 -434 -8 -17 -14 -34 -14 -38 0
-16 -94 -191 -143 -268 -180 -278 -527 -585 -822 -727 -200 -97 -345 -130
-545 -126 -140 2 -240 22 -337 67 -24 10 -47 19 -52 19 -5 0 -14 6 -20 13 -9
11 0 16 47 26 435 96 811 366 1019 729 79 140 155 331 178 453 2 12 6 28 9 37
3 9 8 40 12 67 3 28 8 53 10 56 24 40 23 617 0 658 -2 4 -6 29 -10 57 -7 66
-47 219 -82 314 -31 87 -113 256 -155 318 -15 23 -24 42 -18 42 6 0 45 -14 87
-31z m-2661 -258 c383 -79 716 -302 1039 -696 42 -51 138 -190 162 -235 40
-73 101 -200 113 -235 7 -22 16 -44 20 -50 10 -15 38 -142 48 -214 12 -92 6
-255 -12 -331 -26 -108 -82 -258 -93 -248 -2 3 -15 47 -28 99 -138 547 -497
939 -1016 1110 -65 21 -129 40 -142 43 -13 2 -60 11 -105 20 -45 8 -117 19
-160 23 -99 10 -374 10 -477 0 -263 -25 -570 -126 -766 -251 -30 -19 -56 -33
-57 -32 -6 5 53 145 90 216 89 168 198 313 351 465 188 187 392 294 630 329
113 17 282 11 403 -13z m-92 -1297 c199 -26 288 -46 435 -101 296 -111 497
-292 614 -556 22 -48 36 -90 33 -93 -3 -4 -30 9 -59 29 -61 40 -209 116 -286
146 -67 27 -262 78 -327 86 -27 4 -61 9 -75 11 -39 7 -230 6 -296 -1 -211 -24
-458 -114 -673 -244 -190 -117 -426 -324 -567 -501 -168 -209 -303 -471 -354
-688 -6 -28 -16 -54 -20 -57 -9 -5 -41 67 -77 170 -28 82 -59 217 -68 295 -3
30 -9 73 -12 95 -12 80 -9 350 4 425 73 407 345 724 758 884 132 51 286 89
406 102 30 3 56 7 57 9 10 9 420 1 507 -11z m4161 -191 c4 -10 13 -33 21 -51
38 -86 88 -261 98 -344 3 -23 7 -50 10 -58 17 -60 26 -388 14 -474 -15 -102
-21 -132 -45 -206 -50 -157 -147 -314 -270 -436 -214 -211 -497 -340 -854
-391 -111 -16 -618 -6 -650 12 -3 2 -26 6 -50 10 -75 11 -200 44 -290 77 -265
97 -468 263 -589 479 -33 59 -83 179 -75 179 3 0 46 -24 97 -54 413 -242 837
-295 1252 -154 194 65 426 195 600 337 88 71 248 228 311 306 27 33 52 62 55
65 3 3 38 55 78 115 112 168 232 433 256 568 8 39 22 48 31 20z m-3482 -708
c89 -21 183 -53 220 -76 l29 -18 -29 -6 c-384 -84 -677 -255 -908 -529 -196
-232 -322 -549 -365 -916 -8 -75 -7 -448 2 -485 3 -11 8 -47 11 -80 11 -94 62
-295 99 -392 35 -90 96 -215 143 -290 14 -24 22 -43 16 -43 -18 0 -153 59
-230 101 -161 87 -304 198 -460 357 -143 146 -225 285 -275 463 -33 118 -40
169 -41 294 0 132 9 211 39 321 96 354 294 644 640 938 240 204 526 345 755
373 25 3 46 7 48 8 11 9 249 -6 306 -20z m286 -379 c0 -3 -22 -40 -48 -83 -27
-43 -66 -114 -86 -158 -43 -89 -111 -288 -120 -350 -3 -22 -11 -64 -17 -92
-13 -66 -18 -261 -8 -339 14 -117 20 -150 45 -239 34 -118 94 -264 156 -378
28 -50 54 -94 57 -97 3 -3 12 -16 20 -30 66 -119 336 -415 466 -511 33 -24 62
-47 65 -50 18 -22 227 -148 322 -194 113 -54 270 -110 341 -122 21 -3 35 -9
30 -14 -26 -25 -265 -109 -355 -124 -18 -3 -55 -10 -83 -15 -217 -40 -526 -32
-697 20 -297 90 -563 329 -702 631 -55 121 -66 147 -66 157 0 5 -9 37 -20 71
-51 162 -65 275 -65 541 0 303 19 444 87 660 81 252 220 455 401 584 96 68
277 154 277 132z m249 -215 c29 -146 121 -377 199 -501 253 -398 621 -637
1107 -719 186 -32 566 -35 716 -6 13 3 51 10 84 16 170 30 406 120 574 219
l54 32 -7 -29 c-8 -32 -91 -204 -132 -273 -100 -171 -302 -400 -448 -509 -185
-140 -423 -211 -681 -205 -239 6 -492 91 -725 242 -132 85 -198 140 -341 284
-403 405 -585 835 -515 1223 17 95 82 285 97 285 3 0 12 -27 18 -59z"/>
</g>
</svg>
