<svg xmlns="http://www.w3.org/2000/svg" version="1.1" xmlns:xlink="http://www.w3.org/1999/xlink" xmlns:svgjs="http://svgjs.dev/svgjs" width="1500" height="1500" viewBox="0 0 1500 1500"><rect width="1500" height="1500" fill="#ffffff"></rect><g transform="matrix(0.6666666666666666,0,0,0.6666666666666666,249.39393939393938,532.8916423825887)"><svg viewBox="0 0 396 172" data-background-color="#ffffff" preserveAspectRatio="xMidYMid meet" height="651" width="1500" xmlns="http://www.w3.org/2000/svg" xmlns:xlink="http://www.w3.org/1999/xlink"><g id="tight-bounds" transform="matrix(1,0,0,1,0.2400000000000091,0.04294357187728792)"><svg viewBox="0 0 395.52 171.91411285624542" height="171.91411285624542" width="395.52"><g><svg viewBox="0 0 621.0212071615075 269.92897930341115" height="171.91411285624542" width="395.52"><g transform="matrix(1,0,0,1,225.50120716150755,83.41197259605028)"><svg viewBox="0 0 395.52 103.1050341113106" height="103.1050341113106" width="395.52"><g id="textblocktransform"><svg viewBox="0 0 395.52 103.1050341113106" height="103.1050341113106" width="395.52" id="textblock"><g><svg viewBox="0 0 395.52 103.1050341113106" height="103.1050341113106" width="395.52"><g transform="matrix(1,0,0,1,0,0)"><svg width="395.52" viewBox="2.8 -35.85 139.23999999999998 36.300000000000004" height="103.1050341113106" data-palette-color="#d2d6dc"><path d="M2.8 0.15L2.8 0.15Q2.8-0.55 2.85-1.07 2.9-1.6 3.05-2L3.05-2Q4.4-2.1 5.15-2.48 5.9-2.85 6.2-3.78 6.5-4.7 6.5-6.35L6.5-6.35 6.5-27.45Q6.5-29.15 6.2-30.05 5.9-30.95 5.15-31.35 4.4-31.75 3.05-31.8L3.05-31.8Q2.9-32.2 2.85-32.75 2.8-33.3 2.8-33.95L2.8-33.95Q3.65-33.9 4.7-33.88 5.75-33.85 6.93-33.83 8.1-33.8 9.2-33.8 10.3-33.8 11.2-33.8L11.2-33.8 11.2-7.35Q11.2-5.2 11.65-4.08 12.1-2.95 13.1-2.53 14.1-2.1 15.65-2L15.65-2Q15.8-1.6 15.85-1.07 15.9-0.55 15.9 0.15L15.9 0.15Q15.15 0.1 14.13 0.08 13.1 0.05 11.95 0.03 10.8 0 9.6 0L9.6 0Q7.85 0 5.83 0.03 3.8 0.05 2.8 0.15ZM22.6-10.25L22.6-10.25Q21.95-10.25 21.4-10.3 20.85-10.35 20.3-10.5L20.3-10.5Q20.1-13.1 18.93-14.03 17.75-14.95 14.65-14.95L14.65-14.95 11.05-14.95 11.05-17.1 14.65-17.1Q17.75-17.1 18.95-17.9 20.15-18.7 20.2-21.15L20.2-21.15Q20.85-21.35 21.4-21.43 21.95-21.5 22.6-21.5L22.6-21.5Q22.55-20.25 22.53-18.8 22.5-17.35 22.5-16.05L22.5-16.05Q22.5-14.75 22.53-13.15 22.55-11.55 22.6-10.25ZM23.85-25.45L23.85-25.45Q23.75-27 23.05-28.45 22.35-29.9 20.63-30.85 18.9-31.8 15.65-31.8L15.65-31.8 9.95-31.8 11.05-33.8Q15-33.8 17.82-33.83 20.65-33.85 22.45-33.9 24.25-33.95 25.05-33.95L25.05-33.95Q25.15-32.85 25.3-31.4 25.45-29.95 25.65-28.55 25.85-27.15 26.1-26.05L26.1-26.05Q25.7-25.7 25.13-25.58 24.55-25.45 23.85-25.45ZM29.9 0.15L29.9 0.15Q29.9-0.35 29.95-0.93 30-1.5 30.15-2L30.15-2Q32.15-2 32.87-2.93 33.6-3.85 33.6-6.35L33.6-6.35 33.6-16.25Q33.6-17.45 33.37-18.23 33.15-19 32.35-19.4 31.55-19.8 29.85-19.8L29.85-19.8Q29.85-20.35 29.95-20.8 30.05-21.25 30.3-21.65L30.3-21.65Q31.05-21.65 32.42-21.9 33.8-22.15 35.1-22.55 36.4-22.95 37-23.35L37-23.35Q37.45-23.2 37.77-22.75 38.1-22.3 38.1-21.35L38.1-21.35 38.1-6.35Q38.1-3.85 38.77-2.93 39.45-2 41.05-2L41.05-2Q41.2-1.5 41.25-0.85 41.3-0.2 41.3 0.15L41.3 0.15Q40.45 0.1 39.5 0.08 38.55 0.05 37.57 0.03 36.6 0 35.65 0L35.65 0Q34.7 0 33.67 0.03 32.65 0.05 31.7 0.08 30.75 0.1 29.9 0.15ZM35.45-29L35.45-29Q34.2-29 33.35-29.85 32.5-30.7 32.5-31.9L32.5-31.9Q32.5-33.25 33.4-34.1 34.3-34.95 35.45-34.95L35.45-34.95Q36.8-34.95 37.62-34.1 38.45-33.25 38.45-31.9L38.45-31.9Q38.45-30.75 37.57-29.88 36.7-29 35.45-29ZM53.14-21.15L48.64-10.7 48.64-16.25Q48.64-17.45 48.39-18.2 48.14-18.95 47.34-19.35 46.55-19.75 44.89-19.8L44.89-19.8Q44.89-20.35 44.99-20.8 45.09-21.25 45.34-21.65L45.34-21.65Q46.89-21.75 48.89-22.25 50.89-22.75 52.05-23.35L52.05-23.35Q52.49-23.2 52.82-22.73 53.14-22.25 53.14-21.15L53.14-21.15ZM67.94-14.95L67.94-6.35Q67.94-3.75 68.67-2.88 69.39-2 70.89-2L70.89-2Q71.05-1.55 71.09-1.05 71.14-0.55 71.14 0.15L71.14 0.15Q70.05 0.05 68.64 0.03 67.25 0 65.69 0L65.69 0Q64.69 0 63.59 0.03 62.5 0.05 61.52 0.08 60.55 0.1 59.75 0.15L59.75 0.15Q59.75-0.55 59.8-1.07 59.84-1.6 60-2L60-2Q61.8-2 62.62-2.93 63.45-3.85 63.45-6.35L63.45-6.35 63.45-13.95Q63.45-17.5 62.14-18.78 60.84-20.05 58.8-20.05L58.8-20.05Q57.49-20.05 56.2-19.23 54.89-18.4 54.02-16.57 53.14-14.75 53.14-11.7L53.14-11.7 53.14-6.35Q53.14-3.85 53.89-2.93 54.64-2 56.59-2L56.59-2Q56.74-1.55 56.8-1.05 56.84-0.55 56.84 0.15L56.84 0.15Q56.14 0.1 55.14 0.08 54.14 0.05 53.05 0.03 51.95 0 50.89 0L50.89 0Q49.89 0 48.8 0.03 47.7 0.05 46.7 0.08 45.7 0.1 44.95 0.15L44.95 0.15Q44.95-0.55 44.99-1.07 45.05-1.6 45.2-2L45.2-2Q47.14-2 47.89-2.93 48.64-3.85 48.64-6.35L48.64-6.35 48.64-16.25 53.14-21.15Q53.14-20.55 53.09-19.8 53.05-19.05 52.8-18.2L52.8-18.2Q52.95-18.45 53.09-18.78 53.24-19.1 53.55-19.5L53.55-19.5Q54.39-20.65 56.27-21.88 58.14-23.1 60.8-23.1L60.8-23.1Q62.7-23.1 64.32-22.33 65.94-21.55 66.94-19.78 67.94-18 67.94-14.95L67.94-14.95ZM87.39-23.35L87.39-23.35Q88.84-23.35 89.92-23.1 90.99-22.85 92.24-22.45L92.24-22.45 92.24-18.6Q91.24-19.65 90.07-20.35 88.89-21.05 87.14-21.05L87.14-21.05Q86.09-21.05 84.87-20.63 83.64-20.2 82.49-19.15 81.34-18.1 80.62-16.2 79.89-14.3 79.89-11.3L79.89-11.3Q79.89-8.1 80.84-6.23 81.79-4.35 83.09-3.53 84.39-2.7 85.49-2.7L85.49-2.7Q86.99-2.7 88.37-3.63 89.74-4.55 90.64-6.65 91.54-8.75 91.54-12.25L91.54-12.25 92.99-6.95Q92.34-5.35 91.87-4.5 91.39-3.65 91.14-3.25L91.14-3.25Q90.69-2.5 89.72-1.65 88.74-0.8 87.37-0.18 85.99 0.45 84.29 0.45L84.29 0.45Q81.39 0.45 79.29-0.73 77.19-1.9 76.07-4.35 74.94-6.8 74.94-10.65L74.94-10.65Q74.94-14.15 76.49-17.03 78.04-19.9 80.84-21.63 83.64-23.35 87.39-23.35ZM92.59-6.8L96.04-6.8Q96.04-5.65 96.24-4.88 96.44-4.1 97.12-3.75 97.79-3.4 99.14-3.4L99.14-3.4Q99.14-2.9 99.09-2.27 99.04-1.65 98.84-1.1L98.84-1.1Q97.59-1.05 95.94-0.63 94.29-0.2 93.14 0.45L93.14 0.45Q92.64 0.2 92.27-0.28 91.89-0.75 91.89-2.45L91.89-2.45Q91.89-3.45 92.07-4.23 92.24-5 92.59-6.8L92.59-6.8ZM91.54-28.75L96.04-28.75 96.04-6.35 91.54-6.35 91.54-28.75ZM94.94-35.85L94.94-35.85Q95.39-35.7 95.72-35.25 96.04-34.8 96.04-33.85L96.04-33.85 96.04-26.9 91.54-26.9 91.54-28.75Q91.54-29.95 91.32-30.73 91.09-31.5 90.29-31.9 89.49-32.3 87.79-32.3L87.79-32.3Q87.79-32.85 87.89-33.3 87.99-33.75 88.24-34.15L88.24-34.15Q88.99-34.15 90.34-34.4 91.69-34.65 93.02-35.05 94.34-35.45 94.94-35.85ZM111.19-11.35L111.19-7.35Q111.19-5.2 111.64-4.08 112.09-2.95 113.09-2.53 114.09-2.1 115.64-2L115.64-2Q115.79-1.6 115.84-1.07 115.89-0.55 115.89 0.15L115.89 0.15Q115.14 0.1 114.12 0.08 113.09 0.05 111.94 0.03 110.79 0 109.59 0L109.59 0Q107.84 0 105.92 0.03 103.99 0.05 102.99 0.15L102.99 0.15Q102.99-0.55 103.04-1.07 103.09-1.6 103.24-2L103.24-2Q104.59-2.1 105.34-2.48 106.09-2.85 106.39-3.78 106.69-4.7 106.69-6.35L106.69-6.35 106.69-11.35 111.19-11.35ZM110.34-15.35L111.19-14.65 111.19-10.7 106.69-10.7 106.69-16.25 111.19-21.15Q111.19-19.45 110.89-18.07 110.59-16.7 110.34-15.35L110.34-15.35ZM111.19-12.15L110.09-15.05Q110.64-16.45 110.94-17.35 111.24-18.25 111.59-18.85L111.59-18.85Q112.69-20.6 114.19-21.75 115.69-22.9 117.64-22.9L117.64-22.9Q119.54-22.9 121.09-21.7L121.09-21.7Q120.99-20.9 120.89-19.85 120.79-18.8 120.77-17.75 120.74-16.7 120.74-15.8L120.74-15.8Q120.29-15.65 119.52-15.5 118.74-15.35 117.89-15.35L117.89-15.35Q117.79-17.75 117.12-18.5 116.44-19.25 115.44-19.25L115.44-19.25Q114.59-19.25 113.59-18.28 112.59-17.3 111.89-15.7 111.19-14.1 111.19-12.15L111.19-12.15ZM111.19-21.15L106.69-10.7 106.69-16.25Q106.69-17.45 106.44-18.2 106.19-18.95 105.39-19.35 104.59-19.75 102.94-19.8L102.94-19.8Q102.94-20.35 103.04-20.8 103.14-21.25 103.39-21.65L103.39-21.65Q104.94-21.75 106.94-22.25 108.94-22.75 110.09-23.35L110.09-23.35Q110.54-23.2 110.87-22.73 111.19-22.25 111.19-21.15L111.19-21.15ZM132.14-11.35L132.14-7.35Q132.14-5.2 132.59-4.08 133.04-2.95 134.04-2.53 135.04-2.1 136.59-2L136.59-2Q136.74-1.6 136.79-1.07 136.84-0.55 136.84 0.15L136.84 0.15Q136.09 0.1 135.06 0.08 134.04 0.05 132.89 0.03 131.74 0 130.54 0L130.54 0Q128.79 0 126.86 0.03 124.94 0.05 123.94 0.15L123.94 0.15Q123.94-0.55 123.99-1.07 124.04-1.6 124.19-2L124.19-2Q125.54-2.1 126.29-2.48 127.04-2.85 127.34-3.78 127.64-4.7 127.64-6.35L127.64-6.35 127.64-11.35 132.14-11.35ZM131.29-15.35L132.14-14.65 132.14-10.7 127.64-10.7 127.64-16.25 132.14-21.15Q132.14-19.45 131.84-18.07 131.54-16.7 131.29-15.35L131.29-15.35ZM132.14-12.15L131.04-15.05Q131.59-16.45 131.89-17.35 132.19-18.25 132.54-18.85L132.54-18.85Q133.64-20.6 135.14-21.75 136.64-22.9 138.59-22.9L138.59-22.9Q140.49-22.9 142.04-21.7L142.04-21.7Q141.94-20.9 141.84-19.85 141.74-18.8 141.71-17.75 141.69-16.7 141.69-15.8L141.69-15.8Q141.24-15.65 140.46-15.5 139.69-15.35 138.84-15.35L138.84-15.35Q138.74-17.75 138.06-18.5 137.39-19.25 136.39-19.25L136.39-19.25Q135.54-19.25 134.54-18.28 133.54-17.3 132.84-15.7 132.14-14.1 132.14-12.15L132.14-12.15ZM132.14-21.15L127.64-10.7 127.64-16.25Q127.64-17.45 127.39-18.2 127.14-18.95 126.34-19.35 125.54-19.75 123.89-19.8L123.89-19.8Q123.89-20.35 123.99-20.8 124.09-21.25 124.34-21.65L124.34-21.65Q125.89-21.75 127.89-22.25 129.89-22.75 131.04-23.35L131.04-23.35Q131.49-23.2 131.81-22.73 132.14-22.25 132.14-21.15L132.14-21.15Z" opacity="1" transform="matrix(1,0,0,1,0,0)" fill="#d2d6dc" class="wordmark-text-0" data-fill-palette-color="primary" id="text-0"></path></svg></g></svg></g></svg></g></svg></g><g><svg viewBox="0 0 201.16058312864578 269.92897930341115" height="269.92897930341115" width="201.16058312864578"><g><svg xmlns="http://www.w3.org/2000/svg" xmlns:xlink="http://www.w3.org/1999/xlink" version="1.1" x="0" y="0" viewBox="13.533000000000001 0 74.13599999999997 99.47999999999999" enable-background="new 0 0 100 100" xml:space="preserve" height="269.92897930341115" width="201.16058312864578" class="icon-icon-0" data-fill-palette-color="accent" id="icon-0"><path d="M79 75.093V61.631c5.022-1.622 8.667-6.337 8.667-11.891 0-5.274-3.289-9.786-7.92-11.617L60.392 18.768c1.077-1.846 1.705-3.985 1.705-6.272C62.097 5.605 56.491 0 49.601 0c-6.891 0-12.498 5.605-12.498 12.496 0 2.725 0.886 5.24 2.372 7.296L20.917 38.35c-4.346 1.959-7.384 6.322-7.384 11.391 0 6.89 5.606 12.496 12.498 12.496 6.89 0 12.497-5.606 12.497-12.496 0-5.283-3.3-9.799-7.942-11.625l14.123-14.122c1.504 0.642 3.158 1 4.894 1 2.185 0 4.237-0.567 6.026-1.556l14.762 14.762c-4.523 1.881-7.715 6.344-7.715 11.542 0 5.793 3.969 10.664 9.326 12.072V74.91c-5.357 1.409-9.326 6.28-9.326 12.074 0 6.891 5.606 12.496 12.497 12.496s12.496-5.605 12.496-12.496C87.667 81.429 84.022 76.714 79 75.093zM26.03 55.566c-3.213 0-5.827-2.613-5.827-5.826 0-3.212 2.614-5.826 5.827-5.826 3.212 0 5.826 2.613 5.826 5.826C31.856 52.953 29.243 55.566 26.03 55.566zM43.774 12.496c0-3.212 2.614-5.826 5.827-5.826 3.213 0 5.826 2.613 5.826 5.826s-2.613 5.826-5.826 5.826C46.388 18.322 43.774 15.708 43.774 12.496zM69.344 49.74c0-3.212 2.614-5.826 5.827-5.826s5.826 2.613 5.826 5.826c0 3.213-2.613 5.826-5.826 5.826S69.344 52.953 69.344 49.74zM75.171 92.81c-3.213 0-5.827-2.613-5.827-5.825 0-3.213 2.614-5.826 5.827-5.826s5.826 2.613 5.826 5.826C80.997 90.196 78.384 92.81 75.171 92.81z" fill="#d2d6dc" data-fill-palette-color="accent"></path></svg></g></svg></g></svg></g><defs></defs></svg><rect width="395.52" height="171.91411285624542" fill="none" stroke="none" visibility="hidden"></rect></g></svg></g></svg>